<svg width="218" height="133" viewBox="0 0 218 133" fill="none" xmlns="http://www.w3.org/2000/svg">
<path d="M0 45.056C0 44.0747 0.0853333 42.9227 0.256 41.6C0.426667 40.2773 0.746667 38.784 1.216 37.12C1.68533 35.4133 2.38933 33.5147 3.328 31.424L11.2 34.176C10.7307 35.4987 10.3253 36.7147 9.984 37.824C9.64267 38.8907 9.38667 39.8933 9.216 40.832C9.04533 41.728 8.96 42.624 8.96 43.52C8.96 45.44 9.42933 47.104 10.368 48.512C11.3493 49.9627 12.672 51.072 14.336 51.84C16.0427 52.6507 18.0053 53.056 20.224 53.056C23.8507 53.056 26.624 52.4587 28.544 51.264C30.5067 50.112 31.8293 48.2773 32.512 45.76C33.2373 43.2 33.5147 39.8933 33.344 35.84L32.064 0H41.088L42.048 30.272C42.1333 32.4053 42.432 34.048 42.944 35.2C43.456 36.352 44.2453 37.1413 45.312 37.568C46.4213 37.9947 47.8507 38.208 49.6 38.208C51.2213 38.208 52.3733 38.6347 53.056 39.488C53.7387 40.2987 54.08 41.3227 54.08 42.56C54.08 43.8827 53.632 44.992 52.736 45.888C51.84 46.7413 50.5813 47.168 48.96 47.168C48.0213 47.168 47.0187 47.04 45.952 46.784C44.8853 46.528 43.8613 46.1227 42.88 45.568C41.8987 45.0133 41.0453 44.288 40.32 43.392C39.5947 42.4533 39.104 41.3013 38.848 39.936L42.304 38.208C42.304 42.5173 41.792 46.1653 40.768 49.152C39.7867 52.1387 38.336 54.5493 36.416 56.384C34.5387 58.2187 32.2133 59.5413 29.44 60.352C26.7093 61.2053 23.552 61.632 19.968 61.632C17.2373 61.632 14.656 61.2907 12.224 60.608C9.83467 59.9253 7.72267 58.9013 5.888 57.536C4.05333 56.1707 2.60267 54.4427 1.536 52.352C0.512 50.304 0 47.872 0 45.056Z" fill="#FEF9EF"/>
<path d="M48.96 47.168L49.6 38.208H68.033C69.6543 38.208 70.8063 38.6347 71.489 39.488C72.2143 40.2987 72.577 41.3227 72.577 42.56C72.577 43.8827 72.129 44.992 71.233 45.888C70.337 46.7413 69.057 47.168 67.393 47.168H48.96Z" fill="#FEF9EF"/>
<path d="M67.461 47.168L68.101 38.208H86.533C88.1543 38.208 89.3063 38.6347 89.989 39.488C90.7143 40.2987 91.077 41.3227 91.077 42.56C91.077 43.8827 90.629 44.992 89.733 45.888C88.837 46.7413 87.557 47.168 85.893 47.168H67.461Z" fill="#FEF9EF"/>
<path d="M85.961 47.168L86.601 38.208H105.033C106.654 38.208 107.806 38.6347 108.489 39.488C109.214 40.2987 109.577 41.3227 109.577 42.56C109.577 43.8827 109.129 44.992 108.233 45.888C107.337 46.7413 106.057 47.168 104.393 47.168H85.961Z" fill="#FEF9EF"/>
<path d="M104.461 47.168L105.101 38.208H123.533C125.154 38.208 126.306 38.6347 126.989 39.488C127.714 40.2987 128.077 41.3227 128.077 42.56C128.077 43.8827 127.629 44.992 126.733 45.888C125.837 46.7413 124.557 47.168 122.893 47.168H104.461Z" fill="#FEF9EF"/>
<path d="M122.961 47.168L123.601 38.208H142.033C143.654 38.208 144.806 38.6347 145.489 39.488C146.214 40.2987 146.577 41.3227 146.577 42.56C146.577 43.8827 146.129 44.992 145.233 45.888C144.337 46.7413 143.057 47.168 141.393 47.168H122.961Z" fill="#FEF9EF"/>
<path d="M183.317 47.168C181.354 47.168 179.52 47.0187 177.813 46.72C176.149 46.4213 174.613 45.9093 173.205 45.184C171.797 44.416 170.538 43.3707 169.429 42.048C168.362 40.7253 167.466 39.0613 166.741 37.056L171.797 33.024C172.565 34.3893 173.504 35.456 174.613 36.224C175.722 36.9493 177.045 37.4613 178.581 37.76C180.117 38.0587 181.909 38.208 183.957 38.208C185.578 38.208 186.73 38.6347 187.413 39.488C188.096 40.2987 188.437 41.3227 188.437 42.56C188.437 43.8827 187.989 44.992 187.093 45.888C186.24 46.7413 184.981 47.168 183.317 47.168ZM141.461 47.168L142.101 38.208C144.405 38.208 146.688 38.08 148.949 37.824C151.21 37.568 153.408 37.184 155.541 36.672C157.674 36.16 159.701 35.4987 161.621 34.688C163.584 33.8773 165.418 32.896 167.125 31.744C165.845 30.976 164.458 30.3147 162.965 29.76C161.472 29.2053 159.872 28.8 158.165 28.544C156.501 28.2453 154.73 28.096 152.853 28.096C152.17 28.096 151.445 28.1173 150.677 28.16C149.952 28.2027 149.205 28.288 148.437 28.416C147.669 28.5013 146.901 28.6293 146.133 28.8L144.853 20.032C146.09 19.6907 147.392 19.456 148.757 19.328C150.165 19.1573 151.402 19.072 152.469 19.072C154.773 19.072 156.885 19.328 158.805 19.84C160.768 20.352 162.56 20.992 164.181 21.76C165.845 22.528 167.381 23.296 168.789 24.064C170.24 24.832 171.605 25.472 172.885 25.984C174.208 26.496 175.488 26.752 176.725 26.752H179.093L180.117 35.264C178.282 35.3493 176.554 35.712 174.933 36.352C173.354 36.9493 171.776 37.7173 170.197 38.656C168.661 39.552 166.997 40.4907 165.205 41.472C163.456 42.4533 161.472 43.3707 159.253 44.224C157.034 45.0773 154.474 45.7813 151.573 46.336C148.672 46.8907 145.301 47.168 141.461 47.168Z" fill="#FEF9EF"/>
<path d="M183.336 47.168L183.976 38.208C184.957 38.208 185.789 37.9733 186.472 37.504C187.197 36.992 187.944 36.16 188.712 35.008C189.48 33.8133 190.376 32.2133 191.4 30.208C192.68 27.648 194.003 25.6427 195.368 24.192C196.776 22.7413 198.205 21.7173 199.656 21.12C201.149 20.48 202.643 20.16 204.136 20.16C206.013 20.16 207.763 20.5653 209.384 21.376C211.005 22.1867 212.413 23.296 213.608 24.704C214.803 26.0693 215.72 27.648 216.36 29.44C217.043 31.1893 217.384 33.0027 217.384 34.88C217.384 37.1413 216.893 39.1893 215.912 41.024C214.973 42.816 213.651 44.2453 211.944 45.312C210.28 46.336 208.36 46.848 206.184 46.848C204.349 46.848 202.216 46.528 199.784 45.888C197.352 45.248 194.792 43.904 192.104 41.856L195.368 34.112C197.288 35.4347 199.08 36.3947 200.744 36.992C202.451 37.5893 203.859 37.888 204.968 37.888C205.821 37.888 206.525 37.8027 207.08 37.632C207.635 37.4613 208.04 37.184 208.296 36.8C208.552 36.416 208.68 35.904 208.68 35.264C208.68 34.368 208.467 33.4507 208.04 32.512C207.613 31.5733 207.037 30.784 206.312 30.144C205.629 29.4613 204.819 29.12 203.88 29.12C202.984 29.12 202.216 29.4613 201.576 30.144C200.979 30.784 200.381 31.7227 199.784 32.96C199.229 34.1547 198.547 35.5627 197.736 37.184C196.755 39.1467 195.795 40.7893 194.856 42.112C193.917 43.392 192.915 44.416 191.848 45.184C190.824 45.9093 189.608 46.4213 188.2 46.72C186.835 47.0187 185.213 47.168 183.336 47.168Z" fill="#FEF9EF"/>
<path d="M70.17 118.168C67.1407 118.168 64.5167 117.784 62.298 117.016C60.122 116.205 58.4367 114.925 57.242 113.176C56.0473 111.384 55.3647 108.995 55.194 106.008L54.042 80.216H63.066L64.154 102.872C64.2393 104.621 64.5167 105.965 64.986 106.904C65.498 107.8 66.2233 108.419 67.162 108.76C68.1007 109.059 69.3167 109.208 70.81 109.208C72.4313 109.208 73.5833 109.635 74.266 110.488C74.9487 111.299 75.29 112.323 75.29 113.56C75.29 114.883 74.842 115.992 73.946 116.888C73.0927 117.741 71.834 118.168 70.17 118.168ZM58.458 112.216C55.5993 112.856 52.8473 113.155 50.202 113.112C47.5567 113.027 45.1887 112.557 43.098 111.704C41.0073 110.808 39.3433 109.528 38.106 107.864C36.9113 106.2 36.314 104.088 36.314 101.528C36.314 99.2667 36.8047 97.2187 37.786 95.384C38.81 93.5067 40.218 91.864 42.01 90.456C43.8447 89.048 45.978 87.8533 48.41 86.872C50.842 85.8907 53.4873 85.144 56.346 84.632L57.242 93.72C55.4073 93.8053 53.7433 94.0613 52.25 94.488C50.7993 94.872 49.5407 95.384 48.474 96.024C47.45 96.664 46.6607 97.3893 46.106 98.2C45.5513 98.968 45.274 99.8 45.274 100.696C45.274 101.421 45.53 102.019 46.042 102.488C46.554 102.957 47.2367 103.341 48.09 103.64C48.9433 103.896 49.9247 104.045 51.034 104.088C52.1433 104.131 53.274 104.067 54.426 103.896C55.6207 103.725 56.794 103.448 57.946 103.064L58.458 112.216ZM58.65 73.624C57.4127 73.624 56.346 73.1973 55.45 72.344C54.5967 71.448 54.17 70.4027 54.17 69.208C54.17 67.9707 54.5967 66.904 55.45 66.008C56.346 65.112 57.4127 64.664 58.65 64.664C59.8447 64.664 60.8687 65.112 61.722 66.008C62.5753 66.904 63.002 67.9707 63.002 69.208C63.002 70.4027 62.5753 71.448 61.722 72.344C60.8687 73.1973 59.8447 73.624 58.65 73.624ZM47.578 73.56C46.3407 73.56 45.274 73.1333 44.378 72.28C43.5247 71.384 43.098 70.3387 43.098 69.144C43.098 67.9067 43.5247 66.84 44.378 65.944C45.274 65.048 46.3407 64.6 47.578 64.6C48.7727 64.6 49.7967 65.048 50.65 65.944C51.5033 66.84 51.93 67.9067 51.93 69.144C51.93 70.3387 51.5033 71.384 50.65 72.28C49.7967 73.1333 48.7727 73.56 47.578 73.56Z" fill="#FEF9EF"/>
<path d="M70.1485 118.168L70.7885 109.208C72.7512 109.208 74.1592 109.016 75.0125 108.632C75.8658 108.205 76.3778 107.437 76.5485 106.328C76.7192 105.176 76.7618 103.512 76.6765 101.336L75.5245 71H84.5485L85.8285 101.976C85.9138 104.451 85.8072 106.691 85.5085 108.696C85.2525 110.659 84.5912 112.344 83.5245 113.752C82.5005 115.16 80.9005 116.248 78.7245 117.016C76.5912 117.784 73.7325 118.168 70.1485 118.168Z" fill="#FEF9EF"/>
<path d="M109.437 118.168C105.469 118.168 102.396 117.763 100.22 116.952C98.0872 116.141 96.5938 114.883 95.7405 113.176C94.8872 111.427 94.3965 109.229 94.2685 106.584L92.9245 71H101.884L103.229 102.296C103.314 104.259 103.527 105.731 103.868 106.712C104.21 107.693 104.85 108.355 105.788 108.696C106.77 109.037 108.199 109.208 110.076 109.208C111.698 109.208 112.85 109.635 113.533 110.488C114.258 111.299 114.62 112.323 114.62 113.56C114.62 114.883 114.172 115.992 113.276 116.888C112.38 117.741 111.101 118.168 109.437 118.168Z" fill="#FEF9EF"/>
<path d="M109.523 118.168L110.163 109.208H128.596C130.217 109.208 131.369 109.635 132.051 110.488C132.777 111.299 133.139 112.323 133.139 113.56C133.139 114.883 132.692 115.992 131.796 116.888C130.9 117.741 129.619 118.168 127.955 118.168H109.523Z" fill="#FEF9EF"/>
<path d="M128.023 118.168L128.663 109.272C130.327 109.315 131.863 109.293 133.271 109.208C134.679 109.123 135.938 108.995 137.048 108.824C138.2 108.653 139.202 108.461 140.055 108.248C140.951 108.035 141.698 107.843 142.296 107.672C143.746 107.203 144.984 106.648 146.008 106.008C147.032 105.325 147.821 104.557 148.376 103.704C148.93 102.851 149.208 101.933 149.208 100.952C149.208 100.184 149.037 99.416 148.695 98.648C148.397 97.8373 147.949 97.176 147.352 96.664C146.754 96.152 146.05 95.896 145.24 95.896C144.472 95.896 143.768 96.1307 143.128 96.6C142.488 97.0693 141.976 97.7093 141.592 98.52C141.208 99.288 141.016 100.184 141.016 101.208C141.016 102.104 141.229 102.957 141.656 103.768C142.082 104.536 142.679 105.283 143.447 106.008C144.215 106.733 145.133 107.416 146.199 108.056L137.688 111.32C136.749 110.424 135.853 109.464 134.999 108.44C134.189 107.416 133.506 106.264 132.952 104.984C132.44 103.661 132.184 102.189 132.184 100.568C132.184 98.6053 132.567 96.8133 133.335 95.192C134.103 93.5707 135.128 92.184 136.408 91.032C137.688 89.8373 139.117 88.92 140.695 88.28C142.274 87.64 143.853 87.32 145.432 87.32C147.992 87.32 150.21 87.9173 152.087 89.112C153.965 90.3067 155.415 91.864 156.439 93.784C157.506 95.704 158.04 97.7947 158.04 100.056C158.04 102.147 157.655 104.024 156.887 105.688C156.119 107.309 155.074 108.76 153.751 110.04C152.471 111.277 151.042 112.365 149.464 113.304C147.928 114.243 146.37 115.032 144.792 115.672C144.024 116.013 143.063 116.333 141.911 116.632C140.759 116.931 139.458 117.208 138.008 117.464C136.557 117.677 134.999 117.848 133.335 117.976C131.671 118.104 129.901 118.168 128.023 118.168ZM161.816 118.168C159.341 118.168 156.909 118.04 154.52 117.784C152.13 117.528 149.911 117.144 147.863 116.632C145.858 116.12 144.109 115.501 142.615 114.776L147.031 107.864C148.311 108.205 149.805 108.483 151.512 108.696C153.261 108.867 155.074 108.995 156.952 109.08C158.872 109.165 160.706 109.208 162.456 109.208C164.077 109.208 165.229 109.635 165.911 110.488C166.637 111.299 166.999 112.323 166.999 113.56C166.999 114.883 166.552 115.992 165.656 116.888C164.76 117.741 163.48 118.168 161.816 118.168ZM151.064 81.496C149.826 81.496 148.759 81.0693 147.863 80.216C147.01 79.32 146.583 78.2747 146.583 77.08C146.583 75.8427 147.01 74.776 147.863 73.88C148.759 72.984 149.826 72.536 151.064 72.536C152.258 72.536 153.282 72.984 154.135 73.88C154.989 74.776 155.415 75.8427 155.415 77.08C155.415 78.2747 154.989 79.32 154.135 80.216C153.282 81.0693 152.258 81.496 151.064 81.496ZM139.992 81.432C138.754 81.432 137.688 81.0053 136.792 80.152C135.938 79.256 135.512 78.2107 135.512 77.016C135.512 75.7787 135.938 74.712 136.792 73.816C137.688 72.92 138.754 72.472 139.992 72.472C141.186 72.472 142.21 72.92 143.064 73.816C143.917 74.712 144.344 75.7787 144.344 77.016C144.344 78.2107 143.917 79.256 143.064 80.152C142.21 81.0053 141.186 81.432 139.992 81.432Z" fill="#FEF9EF"/>
<path d="M161.898 118.168L162.538 109.208C164.416 109.208 165.888 109.08 166.954 108.824C168.064 108.568 168.853 108.099 169.322 107.416C169.792 106.691 170.027 105.667 170.027 104.344C170.027 103.149 169.856 101.72 169.514 100.056C169.216 98.392 168.81 96.664 168.298 94.872C167.786 93.08 167.274 91.4373 166.762 89.944L175.594 87.512C176.106 88.9627 176.618 90.648 177.13 92.568C177.642 94.488 178.069 96.472 178.411 98.52C178.795 100.525 178.986 102.467 178.986 104.344C178.986 106.691 178.688 108.675 178.09 110.296C177.493 111.875 176.661 113.197 175.594 114.264C174.57 115.288 173.333 116.099 171.883 116.696C170.475 117.251 168.917 117.635 167.21 117.848C165.504 118.061 163.733 118.168 161.898 118.168ZM169.771 132.888C168.533 132.888 167.466 132.461 166.57 131.608C165.717 130.755 165.29 129.709 165.29 128.472C165.29 127.235 165.717 126.147 166.57 125.208C167.466 124.312 168.533 123.864 169.771 123.864C171.008 123.864 172.053 124.312 172.906 125.208C173.802 126.147 174.251 127.235 174.251 128.472C174.251 129.709 173.802 130.755 172.906 131.608C172.053 132.461 171.008 132.888 169.771 132.888Z" fill="#FEF9EF"/>
</svg>
