<svg width="225" height="104" viewBox="0 0 225 104" fill="none" xmlns="http://www.w3.org/2000/svg">
<path d="M21.12 42.496C14.208 42.496 8.96 40.6827 5.376 37.056C1.792 33.4293 0 28.3947 0 21.952C0 15.1253 1.81333 9.77067 5.44 5.888C9.06667 1.96267 14.464 0 21.632 0C24.1067 0 26.3467 0.149334 28.352 0.448002C30.3573 0.704001 32.256 1.13067 34.048 1.728V9.152C32.256 8.512 30.3573 8.064 28.352 7.808C26.3893 7.50933 24.3627 7.36 22.272 7.36C17.3653 7.36 13.888 8.576 11.84 11.008C9.792 13.3973 8.768 17.0453 8.768 21.952C8.768 30.784 12.928 35.2 21.248 35.2C22.6987 35.2 24.1067 35.0933 25.472 34.88C26.88 34.624 28.1173 34.304 29.184 33.92V24.32H19.584V18.816H36.48V38.976C35.072 39.872 33.1093 40.6827 30.592 41.408C28.0747 42.1333 24.9173 42.496 21.12 42.496Z" fill="#FEF9EF"/>
<path d="M42.4675 41.856V11.52H50.4675L50.8515 14.656C52.2168 13.8027 53.9022 13.0347 55.9075 12.352C57.9555 11.6267 59.9608 11.136 61.9235 10.88V17.408C60.7715 17.5787 59.5128 17.8347 58.1475 18.176C56.7822 18.5173 55.4808 18.9013 54.2435 19.328C53.0062 19.7547 51.9608 20.2027 51.1075 20.672V41.856H42.4675Z" fill="#FEF9EF"/>
<path d="M80.2605 42.496C74.5858 42.496 70.4258 41.1307 67.7805 38.4C65.1352 35.6267 63.8125 31.7227 63.8125 26.688C63.8125 21.6533 65.1352 17.7707 67.7805 15.04C70.4685 12.2667 74.6285 10.88 80.2605 10.88C85.9352 10.88 90.0952 12.2667 92.7405 15.04C95.4285 17.7707 96.7725 21.6533 96.7725 26.688C96.7725 31.7227 95.4498 35.6267 92.8045 38.4C90.1592 41.1307 85.9778 42.496 80.2605 42.496ZM80.2605 35.136C83.0338 35.136 85.0178 34.5173 86.2125 33.28C87.4072 32 88.0045 29.8027 88.0045 26.688C88.0045 23.5733 87.4072 21.3973 86.2125 20.16C85.0178 18.88 83.0338 18.24 80.2605 18.24C77.5298 18.24 75.5672 18.88 74.3725 20.16C73.1778 21.3973 72.5805 23.5733 72.5805 26.688C72.5805 29.8027 73.1778 32 74.3725 33.28C75.5672 34.5173 77.5298 35.136 80.2605 35.136Z" fill="#FEF9EF"/>
<path d="M118.268 42.496C112.849 42.496 108.689 41.152 105.788 38.464C102.929 35.776 101.5 31.8507 101.5 26.688C101.5 21.3547 103.036 17.3867 106.108 14.784C109.223 12.1813 113.361 10.88 118.524 10.88C120.657 10.88 122.492 11.0293 124.028 11.328C125.564 11.6267 127.057 12.1173 128.508 12.8V19.008C127.441 18.496 126.204 18.0907 124.796 17.792C123.388 17.4933 121.873 17.344 120.252 17.344C117.009 17.344 114.535 18.0267 112.828 19.392C111.121 20.7147 110.268 23.1467 110.268 26.688C110.268 29.9307 111.036 32.2987 112.572 33.792C114.151 35.2853 116.689 36.032 120.188 36.032C121.681 36.032 123.132 35.8827 124.54 35.584C125.991 35.2853 127.335 34.8373 128.572 34.24V40.64C125.713 41.8773 122.279 42.496 118.268 42.496Z" fill="#FEF9EF"/>
<path d="M149.838 42.496C144.59 42.496 140.43 41.1947 137.358 38.592C134.286 35.9467 132.75 31.9573 132.75 26.624C132.75 21.8027 134.03 17.984 136.59 15.168C139.193 12.3093 143.054 10.88 148.174 10.88C152.867 10.88 156.451 12.1173 158.926 14.592C161.443 17.024 162.702 20.224 162.702 24.192V29.696H140.75C141.219 32.128 142.329 33.792 144.078 34.688C145.87 35.584 148.387 36.032 151.63 36.032C153.251 36.032 154.894 35.8827 156.558 35.584C158.265 35.2853 159.715 34.9013 160.91 34.432V40.576C159.502 41.216 157.859 41.6853 155.982 41.984C154.105 42.3253 152.057 42.496 149.838 42.496ZM140.75 24.384H155.15V22.72C155.15 20.9707 154.638 19.6053 153.614 18.624C152.59 17.6 150.862 17.088 148.43 17.088C145.571 17.088 143.566 17.664 142.414 18.816C141.305 19.968 140.75 21.824 140.75 24.384Z" fill="#FEF9EF"/>
<path d="M168.717 41.856V11.52H176.717L177.102 14.656C178.467 13.8027 180.152 13.0347 182.158 12.352C184.206 11.6267 186.211 11.136 188.174 10.88V17.408C187.022 17.5787 185.763 17.8347 184.398 18.176C183.032 18.5173 181.731 18.9013 180.493 19.328C179.256 19.7547 178.211 20.2027 177.357 20.672V41.856H168.717Z" fill="#FEF9EF"/>
<path d="M198.279 53.12C196.956 53.12 195.782 53.0347 194.758 52.864C193.734 52.736 192.732 52.48 191.751 52.096V46.016C192.476 46.272 193.137 46.4427 193.734 46.528C194.374 46.6133 195.014 46.656 195.654 46.656C197.404 46.656 198.748 46.2507 199.686 45.44C200.668 44.6293 201.649 43.264 202.63 41.344L189.062 11.52H198.087L206.982 32.128L215.814 11.52H224.775L212.807 39.744C211.697 42.3893 210.481 44.7147 209.159 46.72C207.879 48.768 206.364 50.3467 204.615 51.456C202.865 52.5653 200.753 53.12 198.279 53.12Z" fill="#FEF9EF"/>
<path d="M51.08 103.496C48.4347 103.496 45.96 103.304 43.656 102.92C41.3947 102.536 39.432 101.981 37.768 101.256V93.64C39.6453 94.408 41.672 95.0267 43.848 95.496C46.024 95.9653 48.1573 96.2 50.248 96.2C53.2347 96.2 55.432 95.9227 56.84 95.368C58.248 94.8133 58.952 93.5547 58.952 91.592C58.952 90.3547 58.6533 89.3733 58.056 88.648C57.4587 87.9227 56.4133 87.2827 54.92 86.728C53.4693 86.1307 51.4 85.4693 48.712 84.744C44.4027 83.5493 41.3733 82.056 39.624 80.264C37.8747 78.472 37 75.9973 37 72.84C37 69.0427 38.3867 66.12 41.16 64.072C43.9333 62.024 47.9653 61 53.256 61C55.7307 61 58.0347 61.1707 60.168 61.512C62.3013 61.8533 64.0293 62.2587 65.352 62.728V70.344C61.8533 69.0213 58.2053 68.36 54.408 68.36C51.72 68.36 49.608 68.6587 48.072 69.256C46.536 69.8107 45.768 71.0053 45.768 72.84C45.768 73.9067 46.0453 74.76 46.6 75.4C47.1547 76.04 48.0933 76.616 49.416 77.128C50.7813 77.64 52.68 78.216 55.112 78.856C58.4827 79.752 61.0853 80.8187 62.92 82.056C64.7547 83.2933 66.0133 84.7013 66.696 86.28C67.4213 87.8587 67.784 89.6293 67.784 91.592C67.784 95.176 66.4187 98.056 63.688 100.232C60.9573 102.408 56.7547 103.496 51.08 103.496Z" fill="#FEF9EF"/>
<path d="M84.8745 103.496C81.3758 103.496 78.7732 102.579 77.0665 100.744C75.4025 98.9093 74.5705 96.4133 74.5705 93.256V79.176H70.2825V72.52H74.5705V65.992L83.2105 63.432V72.52H90.8905L90.3785 79.176H83.2105V92.68C83.2105 94.344 83.5945 95.496 84.3625 96.136C85.1305 96.7333 86.3252 97.032 87.9465 97.032C89.1412 97.032 90.3785 96.8187 91.6585 96.392V102.344C90.7198 102.728 89.6958 103.005 88.5865 103.176C87.4772 103.389 86.2398 103.496 84.8745 103.496Z" fill="#FEF9EF"/>
<path d="M111.26 103.496C105.586 103.496 101.426 102.131 98.7805 99.4C96.1352 96.6267 94.8125 92.7227 94.8125 87.688C94.8125 82.6533 96.1352 78.7707 98.7805 76.04C101.469 73.2667 105.628 71.88 111.26 71.88C116.935 71.88 121.095 73.2667 123.741 76.04C126.429 78.7707 127.773 82.6533 127.773 87.688C127.773 92.7227 126.45 96.6267 123.805 99.4C121.159 102.131 116.978 103.496 111.26 103.496ZM111.26 96.136C114.034 96.136 116.018 95.5173 117.213 94.28C118.407 93 119.005 90.8027 119.005 87.688C119.005 84.5733 118.407 82.3973 117.213 81.16C116.018 79.88 114.034 79.24 111.26 79.24C108.53 79.24 106.567 79.88 105.372 81.16C104.178 82.3973 103.58 84.5733 103.58 87.688C103.58 90.8027 104.178 93 105.372 94.28C106.567 95.5173 108.53 96.136 111.26 96.136Z" fill="#FEF9EF"/>
<path d="M133.78 102.856V72.52H141.78L142.164 75.656C143.529 74.8027 145.215 74.0347 147.22 73.352C149.268 72.6267 151.273 72.136 153.236 71.88V78.408C152.084 78.5787 150.825 78.8347 149.46 79.176C148.095 79.5173 146.793 79.9013 145.556 80.328C144.319 80.7547 143.273 81.2027 142.42 81.672V102.856H133.78Z" fill="#FEF9EF"/>
<path d="M172.213 103.496C166.965 103.496 162.805 102.195 159.733 99.592C156.661 96.9467 155.125 92.9573 155.125 87.624C155.125 82.8027 156.405 78.984 158.965 76.168C161.568 73.3093 165.429 71.88 170.549 71.88C175.242 71.88 178.826 73.1173 181.301 75.592C183.818 78.024 185.077 81.224 185.077 85.192V90.696H163.125C163.594 93.128 164.704 94.792 166.453 95.688C168.245 96.584 170.762 97.032 174.005 97.032C175.626 97.032 177.269 96.8827 178.933 96.584C180.64 96.2853 182.09 95.9013 183.285 95.432V101.576C181.877 102.216 180.234 102.685 178.357 102.984C176.48 103.325 174.432 103.496 172.213 103.496ZM163.125 85.384H177.525V83.72C177.525 81.9707 177.013 80.6053 175.989 79.624C174.965 78.6 173.237 78.088 170.805 78.088C167.946 78.088 165.941 78.664 164.789 79.816C163.68 80.968 163.125 82.824 163.125 85.384Z" fill="#FEF9EF"/>
</svg>
